<svg width="24" height="23" viewBox="0 0 24 23" fill="none" xmlns="http://www.w3.org/2000/svg">
<path d="M2.39219 22.2183C1.92207 22.1094 1.46555 21.9749 1.07793 21.6881C0.389399 21.1787 0.00787148 20.5182 0.00646536 19.7038C-0.00150267 15.2068 -0.00244008 10.7093 0.00552794 6.21188C0.00787148 4.84203 1.20214 3.73687 2.71372 3.70693C3.87705 3.68393 5.04085 3.69781 6.20465 3.70302C6.68039 3.70519 7.00426 4.00849 6.99536 4.4168C6.98692 4.81469 6.66445 5.08719 6.18825 5.08849C5.09475 5.09109 4.00126 5.08849 2.90776 5.08979C2.00503 5.09066 1.50164 5.55754 1.50164 6.39281C1.50164 10.7744 1.50164 15.156 1.50164 19.5376C1.50164 20.3612 2.0055 20.8298 2.89183 20.8298C8.96815 20.8302 15.0445 20.8302 21.1208 20.8298C21.9912 20.8298 22.4993 20.3573 22.4993 19.5485C22.4997 16.9888 22.4983 14.4292 22.5002 11.87C22.5007 11.2847 23.0884 10.9185 23.597 11.2027C23.7634 11.296 23.8669 11.4856 23.9996 11.6314C23.9996 14.4227 23.9996 17.2145 23.9996 20.0058C23.9837 20.0527 23.963 20.0982 23.9523 20.146C23.777 20.9057 23.3439 21.5032 22.6047 21.8755C22.2968 22.0309 21.9424 22.1068 21.6092 22.2187C15.2038 22.2183 8.79801 22.2183 2.39219 22.2183Z" fill="#00794C"/>
<path d="M23.9979 7.11812C23.8526 7.29298 23.7237 7.4826 23.5597 7.64054C21.5049 9.62263 19.4444 11.5995 17.3882 13.5803C17.1693 13.7912 16.9298 13.9318 16.6031 13.8723C16.2211 13.8025 15.9971 13.5196 15.9957 13.1043C15.9929 12.2222 15.9948 11.34 15.9948 10.4583C15.9948 10.3798 15.9948 10.3008 15.9948 10.2336C15.9671 10.2136 15.9559 10.198 15.9432 10.1971C13.1961 10.0301 10.764 10.6775 8.8165 12.5684C8.26905 13.1 7.82566 13.7009 7.4596 14.3527C7.23696 14.7488 6.8395 14.8994 6.45 14.7384C6.18706 14.6299 6.01176 14.439 6.0066 14.1722C5.97989 12.8205 5.93958 11.4641 6.40876 10.1568C7.6438 6.71588 10.1739 4.60189 14.0131 3.86337C14.65 3.74101 15.3104 3.72452 15.9943 3.65553C15.9943 3.6052 15.9943 3.5284 15.9943 3.4516C15.9943 2.55514 15.9896 1.65869 15.9962 0.762235C16.0004 0.203362 16.5249 -0.148103 17.0372 0.0610401C17.1478 0.106167 17.2504 0.183402 17.3353 0.264543C19.4773 2.31953 21.6169 4.37625 23.7533 6.43601C23.8526 6.53147 23.9164 6.65861 23.997 6.77056C23.9979 6.88641 23.9979 7.00226 23.9979 7.11812ZM17.4951 2.41456C17.4951 2.54907 17.4951 2.61762 17.4951 2.68618C17.4951 3.21381 17.496 3.74145 17.4951 4.26908C17.4941 4.8375 17.2232 5.07745 16.612 5.0922C15.9184 5.10869 15.2115 5.07571 14.5343 5.18636C11.2472 5.7231 9.0307 7.46568 7.90815 10.3785C7.74598 10.799 7.66723 11.2472 7.55006 11.6828C7.57537 11.6928 7.60115 11.7032 7.62646 11.7132C7.69442 11.6472 7.76191 11.5804 7.83081 11.5153C9.48301 9.96499 11.4778 9.05508 13.8195 8.85678C14.7649 8.77651 15.7224 8.81036 16.6744 8.80124C17.2054 8.79647 17.4923 9.07157 17.4946 9.56926C17.4974 10.1329 17.4946 10.697 17.496 11.2606C17.496 11.3118 17.5077 11.363 17.5185 11.4524C19.1004 9.93114 20.6509 8.44067 22.207 6.94412C20.6359 5.43369 19.0901 3.94755 17.4951 2.41456Z" fill="#00794C"/>
</svg>
