<svg width="24" height="24" viewBox="0 0 24 24" fill="none" xmlns="http://www.w3.org/2000/svg">
<circle cx="12" cy="12" r="12" fill="#00794C"/>
<path d="M15 6H9C7.34315 6 6 7.24345 6 8.77732V14.332C6 15.8658 7.34315 17.1093 9 17.1093H15C16.6569 17.1093 18 15.8658 18 14.332V8.77732C18 7.24345 16.6569 6 15 6Z" stroke="white" stroke-linecap="round" stroke-linejoin="round"/>
<path d="M14.399 11.2042C14.4731 11.6665 14.3878 12.1386 14.1553 12.5534C13.9228 12.9682 13.5549 13.3046 13.104 13.5147C12.6531 13.7248 12.1421 13.798 11.6437 13.7237C11.1453 13.6495 10.6849 13.4316 10.3279 13.1012C9.97099 12.7707 9.73568 12.3445 9.65548 11.8831C9.57528 11.4217 9.65428 10.9486 9.88124 10.5312C10.1082 10.1137 10.4716 9.77316 10.9196 9.55791C11.3677 9.34267 11.8777 9.26371 12.377 9.33226C12.8864 9.40219 13.358 9.62192 13.7221 9.959C14.0862 10.2961 14.3235 10.7326 14.399 11.2042Z" stroke="white" stroke-linecap="round" stroke-linejoin="round"/>
<path d="M15.2969 8.49976H15.3029" stroke="white" stroke-linecap="round" stroke-linejoin="round"/>
</svg>
