<svg width="24" height="24" viewBox="0 0 24 24" fill="none" xmlns="http://www.w3.org/2000/svg">
<circle cx="12" cy="12" r="12" fill="#00794C"/>
<path d="M19.7127 6.00623C19.0723 6.42443 18.3632 6.74428 17.6128 6.95348C17.21 6.52474 16.6748 6.22087 16.0794 6.08295C15.484 5.94503 14.8572 5.97972 14.2838 6.18234C13.7104 6.38495 13.218 6.7457 12.8733 7.21581C12.5286 7.68591 12.3481 8.24269 12.3564 8.81083V9.42995C11.1811 9.45816 10.0165 9.21686 8.96642 8.72753C7.91629 8.2382 7.01318 7.51603 6.33752 6.62534C6.33752 6.62534 3.66248 12.1974 9.68131 14.6739C8.30402 15.5394 6.66331 15.9734 5 15.9121C11.0188 19.0077 18.3752 15.9121 18.3752 8.79226C18.3746 8.61981 18.3567 8.44778 18.3217 8.27839C19.0042 7.65524 19.4859 6.86848 19.7127 6.00623V6.00623Z" stroke="white" stroke-linecap="round" stroke-linejoin="round"/>
</svg>
